<svg xmlns="http://www.w3.org/2000/svg" width="26" height="69" viewBox="0 0 26 69"><defs><style>.a{fill:#fff;}.b,.c{fill:none;stroke-linecap:round;}.b{stroke:#52586a;stroke-width:1.4px;}.c{stroke:#bdc0ca;}.d{fill:#abaeba;}.e{fill:#52586a;}</style></defs><g transform="translate(-644 -225)"><rect class="a" width="26" height="69" rx="4" transform="translate(644 225)"/><path class="b" d="M2014,316.295v9.532" transform="translate(-1357 -85)"/><path class="b" d="M2014,316.295v9.532" transform="translate(978.061 -1777.939) rotate(90)"/><g transform="translate(0 20)"><path class="b" d="M2014,316.295v9.532" transform="translate(978.061 -1777.939) rotate(90)"/></g><path class="c" d="M2014,316.295v3" transform="translate(975.061 -1765.939) rotate(90)"/><path class="c" d="M2014,316.295v3" transform="translate(975.061 -1748.939) rotate(90)"/><path class="d" d="M3.463,1.073a.6.6,0,0,1,1.073,0L7.566,7.132A.6.6,0,0,1,7.029,8H.971a.6.6,0,0,1-.537-.868Z" transform="translate(653 271)"/><path class="e" d="M3.463,1.073a.6.6,0,0,1,1.073,0L7.566,7.132A.6.6,0,0,1,7.029,8H.971a.6.6,0,0,1-.537-.868Z" transform="translate(661 288) rotate(180)"/></g></svg>